<?xml version="1.0" standalone="no"?>
<!DOCTYPE svg PUBLIC "-//W3C//DTD SVG 20010904//EN"
 "http://www.w3.org/TR/2001/REC-SVG-20010904/DTD/svg10.dtd">
<svg version="1.0" xmlns="http://www.w3.org/2000/svg"
 width="512.000000pt" height="512.000000pt" viewBox="0 0 512.000000 512.000000"
 preserveAspectRatio="xMidYMid meet">
<metadata>
Created by potrace 1.14, written by Peter Selinger 2001-2017
</metadata>
<g transform="translate(0.000000,512.000000) scale(0.100000,-0.100000)"
fill="#000000" stroke="none">
<path d="M2374 5109 c-126 -15 -195 -44 -256 -104 -53 -52 -89 -132 -95 -209
-21 -257 261 -436 488 -310 43 24 171 117 218 158 90 78 226 223 262 279 54
83 51 114 -11 144 -25 12 -76 28 -115 34 -82 14 -403 19 -491 8z"/>
<path d="M1798 4793 c-26 -6 -35 -43 -73 -303 -2 -14 -9 -55 -15 -91 l-12 -67
-126 1 c-160 2 -266 -7 -384 -33 -529 -116 -914 -432 -1081 -885 -26 -71 -54
-163 -62 -206 -3 -13 -7 -35 -10 -49 -24 -119 -33 -238 -30 -420 5 -298 51
-502 166 -735 81 -165 179 -293 334 -436 57 -52 207 -159 224 -159 6 0 11 -4
11 -10 0 -5 5 -10 10 -10 6 0 27 -10 48 -23 123 -76 409 -182 582 -216 30 -6
66 -14 80 -16 14 -3 39 -8 55 -10 17 -3 44 -8 60 -11 48 -8 84 -12 185 -19
142 -9 192 -14 195 -17 1 -2 18 -34 37 -73 147 -299 372 -552 658 -742 165
-110 379 -200 570 -239 88 -18 327 -25 405 -12 461 79 922 400 1216 848 144
218 227 435 264 685 13 83 14 532 2 590 -3 11 -8 56 -11 100 -4 44 -9 87 -11
95 -2 8 -7 35 -10 60 -4 25 -15 86 -26 135 -91 424 -293 711 -584 827 -124 50
-204 63 -390 63 -180 0 -223 -6 -408 -51 -60 -14 -111 -24 -114 -21 -3 3 -6
37 -7 76 0 38 -4 73 -8 77 -4 4 -31 9 -61 11 -77 5 -89 -7 -91 -98 -2 -59 -5
-73 -17 -70 -7 2 -65 16 -126 30 l-113 26 -66 135 c-59 122 -152 276 -193 321
-9 9 -41 45 -71 80 -156 178 -414 326 -635 365 -22 4 -49 8 -60 11 -11 2 -73
4 -138 4 -64 0 -115 4 -113 8 3 3 8 34 11 66 4 33 12 71 17 85 5 14 9 25 7 25
-2 0 11 97 17 130 20 100 24 149 14 159 -10 10 -89 16 -122 9z"/>
</g>
</svg>
